<mxfile host="Electron" modified="2024-04-04T16:20:56.330Z" agent="Mozilla/5.0 (Windows NT 10.0; Win64; x64) AppleWebKit/537.36 (KHTML, like Gecko) draw.io/24.1.0 Chrome/120.0.6099.109 Electron/28.1.0 Safari/537.36" etag="4yUK4ur6Ysv0G0lbeo1M" version="24.1.0" type="device">
  <diagram name="Page-1" id="Kzm_CP1Lb7JGjUD_tNnn">
    <mxGraphModel dx="4063" dy="1220" grid="1" gridSize="10" guides="1" tooltips="1" connect="1" arrows="1" fold="1" page="1" pageScale="1" pageWidth="1100" pageHeight="850" math="0" shadow="0">
      <root>
        <mxCell id="0" />
        <mxCell id="1" parent="0" />
        <mxCell id="VIDbw090o41v_9-DS3bf-10" style="edgeStyle=orthogonalEdgeStyle;rounded=0;orthogonalLoop=1;jettySize=auto;html=1;entryX=0;entryY=0.5;entryDx=0;entryDy=0;endArrow=none;endFill=0;exitX=0.5;exitY=1;exitDx=0;exitDy=0;curved=1;" edge="1" parent="1" source="VIDbw090o41v_9-DS3bf-5" target="VIDbw090o41v_9-DS3bf-18">
          <mxGeometry relative="1" as="geometry">
            <mxPoint x="-230" y="390" as="sourcePoint" />
            <mxPoint x="180" y="490" as="targetPoint" />
          </mxGeometry>
        </mxCell>
        <mxCell id="VIDbw090o41v_9-DS3bf-5" value="account" style="whiteSpace=wrap;html=1;align=center;" vertex="1" parent="1">
          <mxGeometry x="-490" y="495" width="100" height="40" as="geometry" />
        </mxCell>
        <mxCell id="VIDbw090o41v_9-DS3bf-22" style="edgeStyle=orthogonalEdgeStyle;rounded=0;orthogonalLoop=1;jettySize=auto;html=1;endArrow=none;endFill=0;curved=1;" edge="1" parent="1" source="VIDbw090o41v_9-DS3bf-6" target="VIDbw090o41v_9-DS3bf-5">
          <mxGeometry relative="1" as="geometry" />
        </mxCell>
        <mxCell id="VIDbw090o41v_9-DS3bf-6" value="account_id" style="ellipse;whiteSpace=wrap;html=1;align=center;" vertex="1" parent="1">
          <mxGeometry x="-590" y="385" width="100" height="40" as="geometry" />
        </mxCell>
        <mxCell id="VIDbw090o41v_9-DS3bf-11" style="edgeStyle=orthogonalEdgeStyle;rounded=0;orthogonalLoop=1;jettySize=auto;html=1;entryX=0.01;entryY=0.621;entryDx=0;entryDy=0;exitX=1;exitY=0.5;exitDx=0;exitDy=0;entryPerimeter=0;endArrow=none;endFill=0;curved=1;" edge="1" parent="1" source="VIDbw090o41v_9-DS3bf-18" target="VIDbw090o41v_9-DS3bf-8">
          <mxGeometry relative="1" as="geometry">
            <mxPoint x="300" y="490" as="sourcePoint" />
          </mxGeometry>
        </mxCell>
        <mxCell id="VIDbw090o41v_9-DS3bf-54" style="edgeStyle=orthogonalEdgeStyle;rounded=0;orthogonalLoop=1;jettySize=auto;html=1;endArrow=none;endFill=0;curved=1;" edge="1" parent="1" source="VIDbw090o41v_9-DS3bf-8" target="VIDbw090o41v_9-DS3bf-53">
          <mxGeometry relative="1" as="geometry" />
        </mxCell>
        <mxCell id="VIDbw090o41v_9-DS3bf-8" value="Classroom" style="whiteSpace=wrap;html=1;align=center;" vertex="1" parent="1">
          <mxGeometry x="410" y="540" width="100" height="40" as="geometry" />
        </mxCell>
        <mxCell id="VIDbw090o41v_9-DS3bf-9" value="&lt;span style=&quot;color: rgb(13, 13, 13); font-family: SÃ¶hne, ui-sans-serif, system-ui, -apple-system, &amp;quot;Segoe UI&amp;quot;, Roboto, Ubuntu, Cantarell, &amp;quot;Noto Sans&amp;quot;, sans-serif, &amp;quot;Helvetica Neue&amp;quot;, Arial, &amp;quot;Apple Color Emoji&amp;quot;, &amp;quot;Segoe UI Emoji&amp;quot;, &amp;quot;Segoe UI Symbol&amp;quot;, &amp;quot;Noto Color Emoji&amp;quot;; font-size: 16px; text-align: left; white-space-collapse: preserve; background-color: rgb(255, 255, 255);&quot;&gt;exam&lt;/span&gt;" style="whiteSpace=wrap;html=1;align=center;" vertex="1" parent="1">
          <mxGeometry x="810" y="400" width="100" height="40" as="geometry" />
        </mxCell>
        <mxCell id="VIDbw090o41v_9-DS3bf-18" value="department" style="shape=associativeEntity;whiteSpace=wrap;html=1;align=center;" vertex="1" parent="1">
          <mxGeometry x="120" y="560" width="140" height="60" as="geometry" />
        </mxCell>
        <mxCell id="VIDbw090o41v_9-DS3bf-21" value="account_id" style="ellipse;whiteSpace=wrap;html=1;align=center;" vertex="1" parent="1">
          <mxGeometry x="30" y="335" width="100" height="40" as="geometry" />
        </mxCell>
        <mxCell id="VIDbw090o41v_9-DS3bf-28" style="edgeStyle=orthogonalEdgeStyle;rounded=0;orthogonalLoop=1;jettySize=auto;html=1;endArrow=none;endFill=0;curved=1;" edge="1" parent="1" source="VIDbw090o41v_9-DS3bf-23" target="VIDbw090o41v_9-DS3bf-5">
          <mxGeometry relative="1" as="geometry" />
        </mxCell>
        <mxCell id="VIDbw090o41v_9-DS3bf-23" value="FName" style="ellipse;whiteSpace=wrap;html=1;align=center;" vertex="1" parent="1">
          <mxGeometry x="-310" y="520" width="100" height="40" as="geometry" />
        </mxCell>
        <mxCell id="VIDbw090o41v_9-DS3bf-33" style="edgeStyle=orthogonalEdgeStyle;rounded=0;orthogonalLoop=1;jettySize=auto;html=1;exitX=0;exitY=0.5;exitDx=0;exitDy=0;entryX=1;entryY=0.75;entryDx=0;entryDy=0;endArrow=none;endFill=0;curved=1;" edge="1" parent="1" source="VIDbw090o41v_9-DS3bf-24" target="VIDbw090o41v_9-DS3bf-5">
          <mxGeometry relative="1" as="geometry" />
        </mxCell>
        <mxCell id="VIDbw090o41v_9-DS3bf-24" value="LName" style="ellipse;whiteSpace=wrap;html=1;align=center;" vertex="1" parent="1">
          <mxGeometry x="-310" y="590" width="100" height="40" as="geometry" />
        </mxCell>
        <mxCell id="VIDbw090o41v_9-DS3bf-25" value="NO" style="ellipse;whiteSpace=wrap;html=1;align=center;" vertex="1" parent="1">
          <mxGeometry x="-450" y="375" width="100" height="40" as="geometry" />
        </mxCell>
        <mxCell id="VIDbw090o41v_9-DS3bf-26" value="Email" style="ellipse;whiteSpace=wrap;html=1;align=center;" vertex="1" parent="1">
          <mxGeometry x="-250" y="385" width="100" height="40" as="geometry" />
        </mxCell>
        <mxCell id="VIDbw090o41v_9-DS3bf-30" style="edgeStyle=orthogonalEdgeStyle;rounded=0;orthogonalLoop=1;jettySize=auto;html=1;entryX=0.939;entryY=0.057;entryDx=0;entryDy=0;entryPerimeter=0;endArrow=none;endFill=0;curved=1;" edge="1" parent="1" source="VIDbw090o41v_9-DS3bf-25" target="VIDbw090o41v_9-DS3bf-5">
          <mxGeometry relative="1" as="geometry" />
        </mxCell>
        <mxCell id="VIDbw090o41v_9-DS3bf-31" style="edgeStyle=orthogonalEdgeStyle;rounded=0;orthogonalLoop=1;jettySize=auto;html=1;entryX=0.99;entryY=0.371;entryDx=0;entryDy=0;entryPerimeter=0;endArrow=none;endFill=0;curved=1;" edge="1" parent="1" source="VIDbw090o41v_9-DS3bf-26" target="VIDbw090o41v_9-DS3bf-5">
          <mxGeometry relative="1" as="geometry" />
        </mxCell>
        <mxCell id="VIDbw090o41v_9-DS3bf-34" style="edgeStyle=orthogonalEdgeStyle;rounded=0;orthogonalLoop=1;jettySize=auto;html=1;entryX=0.443;entryY=0.002;entryDx=0;entryDy=0;entryPerimeter=0;endArrow=none;endFill=0;curved=1;" edge="1" parent="1" source="VIDbw090o41v_9-DS3bf-21" target="VIDbw090o41v_9-DS3bf-18">
          <mxGeometry relative="1" as="geometry" />
        </mxCell>
        <mxCell id="VIDbw090o41v_9-DS3bf-35" value="department_Num" style="ellipse;whiteSpace=wrap;html=1;align=center;" vertex="1" parent="1">
          <mxGeometry x="230" y="320" width="100" height="40" as="geometry" />
        </mxCell>
        <mxCell id="VIDbw090o41v_9-DS3bf-41" style="edgeStyle=orthogonalEdgeStyle;rounded=0;orthogonalLoop=1;jettySize=auto;html=1;entryX=1;entryY=0.25;entryDx=0;entryDy=0;endArrow=none;endFill=0;curved=1;" edge="1" parent="1" source="VIDbw090o41v_9-DS3bf-36" target="VIDbw090o41v_9-DS3bf-18">
          <mxGeometry relative="1" as="geometry" />
        </mxCell>
        <mxCell id="VIDbw090o41v_9-DS3bf-36" value="Class_id" style="ellipse;whiteSpace=wrap;html=1;align=center;" vertex="1" parent="1">
          <mxGeometry x="420" y="270" width="100" height="40" as="geometry" />
        </mxCell>
        <mxCell id="VIDbw090o41v_9-DS3bf-37" style="edgeStyle=orthogonalEdgeStyle;rounded=0;orthogonalLoop=1;jettySize=auto;html=1;entryX=0.805;entryY=0.022;entryDx=0;entryDy=0;entryPerimeter=0;endArrow=none;endFill=0;curved=1;" edge="1" parent="1" source="VIDbw090o41v_9-DS3bf-35" target="VIDbw090o41v_9-DS3bf-18">
          <mxGeometry relative="1" as="geometry" />
        </mxCell>
        <mxCell id="VIDbw090o41v_9-DS3bf-40" style="edgeStyle=orthogonalEdgeStyle;rounded=0;orthogonalLoop=1;jettySize=auto;html=1;endArrow=none;endFill=0;curved=1;" edge="1" parent="1" source="VIDbw090o41v_9-DS3bf-39" target="VIDbw090o41v_9-DS3bf-18">
          <mxGeometry relative="1" as="geometry" />
        </mxCell>
        <mxCell id="VIDbw090o41v_9-DS3bf-39" value="department_Name" style="ellipse;whiteSpace=wrap;html=1;align=center;" vertex="1" parent="1">
          <mxGeometry x="130" y="250" width="100" height="40" as="geometry" />
        </mxCell>
        <mxCell id="VIDbw090o41v_9-DS3bf-43" style="edgeStyle=orthogonalEdgeStyle;rounded=0;orthogonalLoop=1;jettySize=auto;html=1;endArrow=none;endFill=0;curved=1;" edge="1" parent="1" source="VIDbw090o41v_9-DS3bf-42" target="VIDbw090o41v_9-DS3bf-8">
          <mxGeometry relative="1" as="geometry" />
        </mxCell>
        <mxCell id="VIDbw090o41v_9-DS3bf-42" value="Class_id" style="ellipse;whiteSpace=wrap;html=1;align=center;" vertex="1" parent="1">
          <mxGeometry x="460" y="790" width="100" height="40" as="geometry" />
        </mxCell>
        <mxCell id="VIDbw090o41v_9-DS3bf-45" value="Class_name" style="ellipse;whiteSpace=wrap;html=1;align=center;" vertex="1" parent="1">
          <mxGeometry x="350" y="720" width="100" height="40" as="geometry" />
        </mxCell>
        <mxCell id="VIDbw090o41v_9-DS3bf-46" style="edgeStyle=orthogonalEdgeStyle;rounded=0;orthogonalLoop=1;jettySize=auto;html=1;entryX=0.195;entryY=1.054;entryDx=0;entryDy=0;entryPerimeter=0;endArrow=none;endFill=0;curved=1;" edge="1" parent="1" source="VIDbw090o41v_9-DS3bf-45" target="VIDbw090o41v_9-DS3bf-8">
          <mxGeometry relative="1" as="geometry" />
        </mxCell>
        <mxCell id="VIDbw090o41v_9-DS3bf-48" style="edgeStyle=orthogonalEdgeStyle;rounded=0;orthogonalLoop=1;jettySize=auto;html=1;entryX=0.75;entryY=1;entryDx=0;entryDy=0;endArrow=none;endFill=0;curved=1;" edge="1" parent="1" source="VIDbw090o41v_9-DS3bf-47" target="VIDbw090o41v_9-DS3bf-8">
          <mxGeometry relative="1" as="geometry" />
        </mxCell>
        <mxCell id="VIDbw090o41v_9-DS3bf-47" value="&lt;span style=&quot;color: rgb(13, 13, 13); font-family: SÃ¶hne, ui-sans-serif, system-ui, -apple-system, &amp;quot;Segoe UI&amp;quot;, Roboto, Ubuntu, Cantarell, &amp;quot;Noto Sans&amp;quot;, sans-serif, &amp;quot;Helvetica Neue&amp;quot;, Arial, &amp;quot;Apple Color Emoji&amp;quot;, &amp;quot;Segoe UI Emoji&amp;quot;, &amp;quot;Segoe UI Symbol&amp;quot;, &amp;quot;Noto Color Emoji&amp;quot;; font-size: 16px; text-align: left; white-space-collapse: preserve; background-color: rgb(255, 255, 255);&quot;&gt;exam_id&lt;/span&gt;" style="ellipse;whiteSpace=wrap;html=1;align=center;" vertex="1" parent="1">
          <mxGeometry x="530" y="630" width="100" height="40" as="geometry" />
        </mxCell>
        <mxCell id="VIDbw090o41v_9-DS3bf-51" value="&lt;span style=&quot;color: rgb(13, 13, 13); font-family: SÃ¶hne, ui-sans-serif, system-ui, -apple-system, &amp;quot;Segoe UI&amp;quot;, Roboto, Ubuntu, Cantarell, &amp;quot;Noto Sans&amp;quot;, sans-serif, &amp;quot;Helvetica Neue&amp;quot;, Arial, &amp;quot;Apple Color Emoji&amp;quot;, &amp;quot;Segoe UI Emoji&amp;quot;, &amp;quot;Segoe UI Symbol&amp;quot;, &amp;quot;Noto Color Emoji&amp;quot;; font-size: 16px; text-align: left; white-space-collapse: preserve; background-color: rgb(255, 255, 255);&quot;&gt;exam_id&lt;/span&gt;" style="ellipse;whiteSpace=wrap;html=1;align=center;" vertex="1" parent="1">
          <mxGeometry x="790" y="640" width="100" height="40" as="geometry" />
        </mxCell>
        <mxCell id="VIDbw090o41v_9-DS3bf-52" style="edgeStyle=orthogonalEdgeStyle;rounded=0;orthogonalLoop=1;jettySize=auto;html=1;entryX=0.12;entryY=0.971;entryDx=0;entryDy=0;entryPerimeter=0;endArrow=none;endFill=0;curved=1;" edge="1" parent="1" source="VIDbw090o41v_9-DS3bf-51" target="VIDbw090o41v_9-DS3bf-9">
          <mxGeometry relative="1" as="geometry" />
        </mxCell>
        <mxCell id="VIDbw090o41v_9-DS3bf-55" style="edgeStyle=orthogonalEdgeStyle;rounded=0;orthogonalLoop=1;jettySize=auto;html=1;entryX=0;entryY=0.5;entryDx=0;entryDy=0;endArrow=none;endFill=0;curved=1;" edge="1" parent="1" source="VIDbw090o41v_9-DS3bf-53" target="VIDbw090o41v_9-DS3bf-9">
          <mxGeometry relative="1" as="geometry" />
        </mxCell>
        <mxCell id="VIDbw090o41v_9-DS3bf-53" value="à¸¡à¸µ" style="shape=rhombus;perimeter=rhombusPerimeter;whiteSpace=wrap;html=1;align=center;" vertex="1" parent="1">
          <mxGeometry x="620" y="480" width="120" height="60" as="geometry" />
        </mxCell>
        <mxCell id="VIDbw090o41v_9-DS3bf-56" value="&lt;span style=&quot;color: rgb(13, 13, 13); font-family: SÃ¶hne, ui-sans-serif, system-ui, -apple-system, &amp;quot;Segoe UI&amp;quot;, Roboto, Ubuntu, Cantarell, &amp;quot;Noto Sans&amp;quot;, sans-serif, &amp;quot;Helvetica Neue&amp;quot;, Arial, &amp;quot;Apple Color Emoji&amp;quot;, &amp;quot;Segoe UI Emoji&amp;quot;, &amp;quot;Segoe UI Symbol&amp;quot;, &amp;quot;Noto Color Emoji&amp;quot;; font-size: 16px; text-align: left; white-space-collapse: preserve; background-color: rgb(255, 255, 255);&quot;&gt;exam_Name&lt;/span&gt;" style="ellipse;whiteSpace=wrap;html=1;align=center;" vertex="1" parent="1">
          <mxGeometry x="910" y="720" width="100" height="40" as="geometry" />
        </mxCell>
        <mxCell id="VIDbw090o41v_9-DS3bf-57" style="edgeStyle=orthogonalEdgeStyle;rounded=0;orthogonalLoop=1;jettySize=auto;html=1;exitX=0.5;exitY=0;exitDx=0;exitDy=0;entryX=0.434;entryY=0.947;entryDx=0;entryDy=0;entryPerimeter=0;endArrow=none;endFill=0;curved=1;" edge="1" parent="1" source="VIDbw090o41v_9-DS3bf-56" target="VIDbw090o41v_9-DS3bf-9">
          <mxGeometry relative="1" as="geometry" />
        </mxCell>
        <mxCell id="VIDbw090o41v_9-DS3bf-72" style="edgeStyle=orthogonalEdgeStyle;rounded=0;orthogonalLoop=1;jettySize=auto;html=1;entryX=0.75;entryY=1;entryDx=0;entryDy=0;endArrow=none;endFill=0;curved=1;" edge="1" parent="1" source="VIDbw090o41v_9-DS3bf-65" target="VIDbw090o41v_9-DS3bf-9">
          <mxGeometry relative="1" as="geometry" />
        </mxCell>
        <mxCell id="VIDbw090o41v_9-DS3bf-65" value="&lt;span style=&quot;color: rgb(13, 13, 13); font-family: SÃ¶hne, ui-sans-serif, system-ui, -apple-system, &amp;quot;Segoe UI&amp;quot;, Roboto, Ubuntu, Cantarell, &amp;quot;Noto Sans&amp;quot;, sans-serif, &amp;quot;Helvetica Neue&amp;quot;, Arial, &amp;quot;Apple Color Emoji&amp;quot;, &amp;quot;Segoe UI Emoji&amp;quot;, &amp;quot;Segoe UI Symbol&amp;quot;, &amp;quot;Noto Color Emoji&amp;quot;; font-size: 16px; text-align: left; white-space-collapse: preserve; background-color: rgb(255, 255, 255);&quot;&gt;examSet&lt;/span&gt;" style="ellipse;whiteSpace=wrap;html=1;align=center;" vertex="1" parent="1">
          <mxGeometry x="1220" y="540" width="100" height="40" as="geometry" />
        </mxCell>
        <mxCell id="VIDbw090o41v_9-DS3bf-66" value="&lt;span style=&quot;color: rgb(13, 13, 13); font-family: SÃ¶hne, ui-sans-serif, system-ui, -apple-system, &amp;quot;Segoe UI&amp;quot;, Roboto, Ubuntu, Cantarell, &amp;quot;Noto Sans&amp;quot;, sans-serif, &amp;quot;Helvetica Neue&amp;quot;, Arial, &amp;quot;Apple Color Emoji&amp;quot;, &amp;quot;Segoe UI Emoji&amp;quot;, &amp;quot;Segoe UI Symbol&amp;quot;, &amp;quot;Noto Color Emoji&amp;quot;; font-size: 16px; text-align: left; white-space-collapse: preserve; background-color: rgb(255, 255, 255);&quot;&gt;question&lt;/span&gt;" style="ellipse;whiteSpace=wrap;html=1;align=center;" vertex="1" parent="1">
          <mxGeometry x="1220" y="385" width="100" height="40" as="geometry" />
        </mxCell>
        <mxCell id="VIDbw090o41v_9-DS3bf-70" style="edgeStyle=orthogonalEdgeStyle;rounded=0;orthogonalLoop=1;jettySize=auto;html=1;entryX=0.75;entryY=1;entryDx=0;entryDy=0;endArrow=none;endFill=0;curved=1;" edge="1" parent="1" source="VIDbw090o41v_9-DS3bf-67" target="VIDbw090o41v_9-DS3bf-9">
          <mxGeometry relative="1" as="geometry" />
        </mxCell>
        <mxCell id="VIDbw090o41v_9-DS3bf-67" value="&lt;div style=&quot;text-align: left;&quot;&gt;&lt;font face=&quot;SÃ¶hne, ui-sans-serif, system-ui, -apple-system, Segoe UI, Roboto, Ubuntu, Cantarell, Noto Sans, sans-serif, Helvetica Neue, Arial, Apple Color Emoji, Segoe UI Emoji, Segoe UI Symbol, Noto Color Emoji&quot; color=&quot;#0d0d0d&quot;&gt;&lt;span style=&quot;font-size: 16px; white-space-collapse: preserve; background-color: rgb(255, 255, 255);&quot;&gt;answerOptions&lt;/span&gt;&lt;/font&gt;&lt;/div&gt;" style="ellipse;whiteSpace=wrap;html=1;align=center;" vertex="1" parent="1">
          <mxGeometry x="1170" y="445" width="150" height="60" as="geometry" />
        </mxCell>
        <mxCell id="VIDbw090o41v_9-DS3bf-68" value="&lt;div style=&quot;text-align: left;&quot;&gt;&lt;span style=&quot;color: rgb(13, 13, 13); font-family: SÃ¶hne, ui-sans-serif, system-ui, -apple-system, &amp;quot;Segoe UI&amp;quot;, Roboto, Ubuntu, Cantarell, &amp;quot;Noto Sans&amp;quot;, sans-serif, &amp;quot;Helvetica Neue&amp;quot;, Arial, &amp;quot;Apple Color Emoji&amp;quot;, &amp;quot;Segoe UI Emoji&amp;quot;, &amp;quot;Segoe UI Symbol&amp;quot;, &amp;quot;Noto Color Emoji&amp;quot;; font-size: 16px; white-space-collapse: preserve; background-color: rgb(255, 255, 255);&quot;&gt;correctAnswer&lt;/span&gt;&lt;br&gt;&lt;/div&gt;" style="ellipse;whiteSpace=wrap;html=1;align=center;" vertex="1" parent="1">
          <mxGeometry x="1260" y="620" width="150" height="60" as="geometry" />
        </mxCell>
        <mxCell id="VIDbw090o41v_9-DS3bf-69" style="edgeStyle=orthogonalEdgeStyle;rounded=0;orthogonalLoop=1;jettySize=auto;html=1;entryX=0.89;entryY=1.068;entryDx=0;entryDy=0;entryPerimeter=0;endArrow=none;endFill=0;curved=1;" edge="1" parent="1" source="VIDbw090o41v_9-DS3bf-66" target="VIDbw090o41v_9-DS3bf-9">
          <mxGeometry relative="1" as="geometry" />
        </mxCell>
        <mxCell id="VIDbw090o41v_9-DS3bf-71" style="edgeStyle=orthogonalEdgeStyle;rounded=0;orthogonalLoop=1;jettySize=auto;html=1;entryX=0.572;entryY=1.034;entryDx=0;entryDy=0;entryPerimeter=0;endArrow=none;endFill=0;curved=1;" edge="1" parent="1" source="VIDbw090o41v_9-DS3bf-68" target="VIDbw090o41v_9-DS3bf-9">
          <mxGeometry relative="1" as="geometry" />
        </mxCell>
      </root>
    </mxGraphModel>
  </diagram>
</mxfile>
